solid OpenSCAD_Model
  facet normal 1 -0 0
    outer loop
      vertex -0.75 -2.025 3.5
      vertex -0.75 -0.749999 0
      vertex -0.75 -0.749999 3.5
    endloop
  endfacet
  facet normal 1 0 0
    outer loop
      vertex -0.75 -0.749999 0
      vertex -0.75 -2.025 3.5
      vertex -0.75 -2.025 0
    endloop
  endfacet
  facet normal 1 -0 0
    outer loop
      vertex -0.75 0.75 3.5
      vertex -0.75 2.025 0
      vertex -0.75 2.025 3.5
    endloop
  endfacet
  facet normal 1 0 0
    outer loop
      vertex -0.75 2.025 0
      vertex -0.75 0.75 3.5
      vertex -0.75 0.75 0
    endloop
  endfacet
  facet normal 0 0 -1
    outer loop
      vertex -2.025 -0.749999 3.5
      vertex -0.75 0.75 3.5
      vertex -0.75 -0.749999 3.5
    endloop
  endfacet
  facet normal -0 0 -1
    outer loop
      vertex -0.75 0.75 3.5
      vertex -2.025 -0.749999 3.5
      vertex -2.025 0.75 3.5
    endloop
  endfacet
  facet normal 0 0 -1
    outer loop
      vertex -0.75 -0.749999 3.5
      vertex 0.75 -0.75 3.5
      vertex 0.75 -2.025 3.5
    endloop
  endfacet
  facet normal 0 0 -1
    outer loop
      vertex 0.75 -0.75 3.5
      vertex -0.75 -0.749999 3.5
      vertex 0.75 0.749999 3.5
    endloop
  endfacet
  facet normal 0 0 -1
    outer loop
      vertex -0.75 -0.749999 3.5
      vertex 0.75 -2.025 3.5
      vertex -0.75 -2.025 3.5
    endloop
  endfacet
  facet normal 0 0 -1
    outer loop
      vertex -0.75 0.75 3.5
      vertex 0.75 0.749999 3.5
      vertex -0.75 -0.749999 3.5
    endloop
  endfacet
  facet normal 0 0 -1
    outer loop
      vertex 0.75 0.749999 3.5
      vertex -0.75 0.75 3.5
      vertex 0.75 2.025 3.5
    endloop
  endfacet
  facet normal -0 0 -1
    outer loop
      vertex 0.75 2.025 3.5
      vertex -0.75 0.75 3.5
      vertex -0.75 2.025 3.5
    endloop
  endfacet
  facet normal 0 0 -1
    outer loop
      vertex 0.75 -0.75 3.5
      vertex 2.025 0.749999 3.5
      vertex 2.025 -0.75 3.5
    endloop
  endfacet
  facet normal -0 0 -1
    outer loop
      vertex 2.025 0.749999 3.5
      vertex 0.75 -0.75 3.5
      vertex 0.75 0.749999 3.5
    endloop
  endfacet
  facet normal -1 0 0
    outer loop
      vertex 0.75 -2.025 0
      vertex 0.75 -0.75 3.5
      vertex 0.75 -0.75 0
    endloop
  endfacet
  facet normal -1 -0 0
    outer loop
      vertex 0.75 -0.75 3.5
      vertex 0.75 -2.025 0
      vertex 0.75 -2.025 3.5
    endloop
  endfacet
  facet normal -1 0 0
    outer loop
      vertex 0.75 0.749999 0
      vertex 0.75 2.025 3.5
      vertex 0.75 2.025 0
    endloop
  endfacet
  facet normal -1 -0 0
    outer loop
      vertex 0.75 2.025 3.5
      vertex 0.75 0.749999 0
      vertex 0.75 0.749999 3.5
    endloop
  endfacet
  facet normal 0 -1 0
    outer loop
      vertex -0.75 2.025 0
      vertex 0.75 2.025 3.5
      vertex -0.75 2.025 3.5
    endloop
  endfacet
  facet normal 0 -1 -0
    outer loop
      vertex 0.75 2.025 3.5
      vertex -0.75 2.025 0
      vertex 0.75 2.025 0
    endloop
  endfacet
  facet normal 0 1 -0
    outer loop
      vertex 0.75 -2.025 0
      vertex -0.75 -2.025 3.5
      vertex 0.75 -2.025 3.5
    endloop
  endfacet
  facet normal 0 1 0
    outer loop
      vertex -0.75 -2.025 3.5
      vertex 0.75 -2.025 0
      vertex -0.75 -2.025 0
    endloop
  endfacet
  facet normal -2.33744e-07 -1 0
    outer loop
      vertex 0.75 0.749999 0
      vertex 2.025 0.749999 3.5
      vertex 0.75 0.749999 3.5
    endloop
  endfacet
  facet normal -2.33744e-07 -1 -0
    outer loop
      vertex 2.025 0.749999 3.5
      vertex 0.75 0.749999 0
      vertex 2.025 0.749999 0
    endloop
  endfacet
  facet normal -2.33744e-07 -1 0
    outer loop
      vertex -2.025 0.75 0
      vertex -0.75 0.75 3.5
      vertex -2.025 0.75 3.5
    endloop
  endfacet
  facet normal -2.33744e-07 -1 -0
    outer loop
      vertex -0.75 0.75 3.5
      vertex -2.025 0.75 0
      vertex -0.75 0.75 0
    endloop
  endfacet
  facet normal 2.33744e-07 1 -0
    outer loop
      vertex 2.025 -0.75 0
      vertex 0.75 -0.75 3.5
      vertex 2.025 -0.75 3.5
    endloop
  endfacet
  facet normal 2.33744e-07 1 0
    outer loop
      vertex 0.75 -0.75 3.5
      vertex 2.025 -0.75 0
      vertex 0.75 -0.75 0
    endloop
  endfacet
  facet normal 2.33744e-07 1 -0
    outer loop
      vertex -0.75 -0.749999 0
      vertex -2.025 -0.749999 3.5
      vertex -0.75 -0.749999 3.5
    endloop
  endfacet
  facet normal 2.33744e-07 1 0
    outer loop
      vertex -2.025 -0.749999 3.5
      vertex -0.75 -0.749999 0
      vertex -2.025 -0.749999 0
    endloop
  endfacet
  facet normal -1 0 0
    outer loop
      vertex 2.025 -0.75 0
      vertex 2.025 0.749999 3.5
      vertex 2.025 0.749999 0
    endloop
  endfacet
  facet normal -1 -0 0
    outer loop
      vertex 2.025 0.749999 3.5
      vertex 2.025 -0.75 0
      vertex 2.025 -0.75 3.5
    endloop
  endfacet
  facet normal 1 -0 0
    outer loop
      vertex -2.025 -0.749999 3.5
      vertex -2.025 0.75 0
      vertex -2.025 0.75 3.5
    endloop
  endfacet
  facet normal 1 0 0
    outer loop
      vertex -2.025 0.75 0
      vertex -2.025 -0.749999 3.5
      vertex -2.025 -0.749999 0
    endloop
  endfacet
  facet normal 0.999391 0.0349024 0
    outer loop
      vertex 2.9 0 4
      vertex 2.89293 0.202293 0
      vertex 2.89293 0.202293 4
    endloop
  endfacet
  facet normal 0.999391 0.0349024 0
    outer loop
      vertex 2.89293 0.202293 0
      vertex 2.9 0 4
      vertex 2.9 0 0
    endloop
  endfacet
  facet normal -0.999391 0.0349024 0
    outer loop
      vertex -2.9 0 0
      vertex -2.89293 0.202293 4
      vertex -2.89293 0.202293 0
    endloop
  endfacet
  facet normal -0.999391 0.0349024 0
    outer loop
      vertex -2.89293 0.202293 4
      vertex -2.9 0 0
      vertex -2.9 0 4
    endloop
  endfacet
  facet normal 0 1 -0
    outer loop
      vertex 0.101208 2.89823 0
      vertex -0.101208 2.89823 4
      vertex 0.101208 2.89823 4
    endloop
  endfacet
  facet normal 0 1 0
    outer loop
      vertex -0.101208 2.89823 4
      vertex 0.101208 2.89823 0
      vertex -0.101208 2.89823 0
    endloop
  endfacet
  facet normal 0 -1 0
    outer loop
      vertex -0.101208 -2.89823 0
      vertex 0.101208 -2.89823 4
      vertex -0.101208 -2.89823 4
    endloop
  endfacet
  facet normal 0 -1 -0
    outer loop
      vertex 0.101208 -2.89823 4
      vertex -0.101208 -2.89823 0
      vertex 0.101208 -2.89823 0
    endloop
  endfacet
  facet normal 0.694657 0.719341 -0
    outer loop
      vertex 2.08609 2.01451 0
      vertex 1.94048 2.15512 4
      vertex 2.08609 2.01451 4
    endloop
  endfacet
  facet normal 0.694657 0.719341 0
    outer loop
      vertex 1.94048 2.15512 4
      vertex 2.08609 2.01451 0
      vertex 1.94048 2.15512 0
    endloop
  endfacet
  facet normal -0.694657 0.719341 0
    outer loop
      vertex -1.94048 2.15512 0
      vertex -2.08609 2.01451 4
      vertex -1.94048 2.15512 4
    endloop
  endfacet
  facet normal -0.694657 0.719341 0
    outer loop
      vertex -2.08609 2.01451 4
      vertex -1.94048 2.15512 0
      vertex -2.08609 2.01451 0
    endloop
  endfacet
  facet normal -0.406735 0.913546 0
    outer loop
      vertex -1.08636 2.68883 0
      vertex -1.27128 2.6065 4
      vertex -1.08636 2.68883 4
    endloop
  endfacet
  facet normal -0.406735 0.913546 0
    outer loop
      vertex -1.27128 2.6065 4
      vertex -1.08636 2.68883 0
      vertex -1.27128 2.6065 0
    endloop
  endfacet
  facet normal 0.898795 0.43837 0
    outer loop
      vertex 2.64928 1.17954 4
      vertex 2.56055 1.36147 0
      vertex 2.56055 1.36147 4
    endloop
  endfacet
  facet normal 0.898795 0.43837 0
    outer loop
      vertex 2.56055 1.36147 0
      vertex 2.64928 1.17954 4
      vertex 2.64928 1.17954 0
    endloop
  endfacet
  facet normal 0.342021 0.939692 -0
    outer loop
      vertex 1.08636 2.68883 0
      vertex 0.896149 2.75806 4
      vertex 1.08636 2.68883 4
    endloop
  endfacet
  facet normal 0.342021 0.939692 0
    outer loop
      vertex 0.896149 2.75806 4
      vertex 1.08636 2.68883 0
      vertex 0.896149 2.75806 0
    endloop
  endfacet
  facet normal 0.529922 0.848046 -0
    outer loop
      vertex 1.62166 2.40421 0
      vertex 1.45 2.51147 4
      vertex 1.62166 2.40421 4
    endloop
  endfacet
  facet normal 0.529922 0.848046 0
    outer loop
      vertex 1.45 2.51147 4
      vertex 1.62166 2.40421 0
      vertex 1.45 2.51147 0
    endloop
  endfacet
  facet normal -0.898795 0.43837 0
    outer loop
      vertex -2.64928 1.17954 0
      vertex -2.56055 1.36147 4
      vertex -2.56055 1.36147 0
    endloop
  endfacet
  facet normal -0.898795 0.43837 0
    outer loop
      vertex -2.56055 1.36147 4
      vertex -2.64928 1.17954 0
      vertex -2.64928 1.17954 4
    endloop
  endfacet
  facet normal -0.20791 0.978148 0
    outer loop
      vertex -0.503579 2.85594 0
      vertex -0.701573 2.81386 4
      vertex -0.503579 2.85594 4
    endloop
  endfacet
  facet normal -0.20791 0.978148 0
    outer loop
      vertex -0.701573 2.81386 4
      vertex -0.503579 2.85594 0
      vertex -0.701573 2.81386 0
    endloop
  endfacet
  facet normal 0.970296 0.241923 0
    outer loop
      vertex 2.83663 0.602943 4
      vertex 2.78766 0.799348 0
      vertex 2.78766 0.799348 4
    endloop
  endfacet
  facet normal 0.970296 0.241923 0
    outer loop
      vertex 2.78766 0.799348 0
      vertex 2.83663 0.602943 4
      vertex 2.83663 0.602943 0
    endloop
  endfacet
  facet normal 0.829037 0.559194 0
    outer loop
      vertex 2.45934 1.53677 4
      vertex 2.34615 1.70458 0
      vertex 2.34615 1.70458 4
    endloop
  endfacet
  facet normal 0.829037 0.559194 0
    outer loop
      vertex 2.34615 1.70458 0
      vertex 2.45934 1.53677 4
      vertex 2.45934 1.53677 0
    endloop
  endfacet
  facet normal 0.866024 0.500002 0
    outer loop
      vertex 2.56055 1.36147 4
      vertex 2.45934 1.53677 0
      vertex 2.45934 1.53677 4
    endloop
  endfacet
  facet normal 0.866024 0.500002 0
    outer loop
      vertex 2.45934 1.53677 0
      vertex 2.56055 1.36147 4
      vertex 2.56055 1.36147 0
    endloop
  endfacet
  facet normal 0.139176 0.990268 -0
    outer loop
      vertex 0.503579 2.85594 0
      vertex 0.303132 2.88411 4
      vertex 0.503579 2.85594 4
    endloop
  endfacet
  facet normal 0.139176 0.990268 0
    outer loop
      vertex 0.303132 2.88411 4
      vertex 0.503579 2.85594 0
      vertex 0.303132 2.88411 0
    endloop
  endfacet
  facet normal 0.275638 0.961261 -0
    outer loop
      vertex 0.896149 2.75806 0
      vertex 0.701573 2.81386 4
      vertex 0.896149 2.75806 4
    endloop
  endfacet
  facet normal 0.275638 0.961261 0
    outer loop
      vertex 0.701573 2.81386 4
      vertex 0.896149 2.75806 0
      vertex 0.701573 2.81386 0
    endloop
  endfacet
  facet normal 0.0697527 0.997564 -0
    outer loop
      vertex 0.303132 2.88411 0
      vertex 0.101208 2.89823 4
      vertex 0.303132 2.88411 4
    endloop
  endfacet
  facet normal 0.0697527 0.997564 0
    outer loop
      vertex 0.101208 2.89823 4
      vertex 0.303132 2.88411 0
      vertex 0.101208 2.89823 0
    endloop
  endfacet
  facet normal 0.46947 0.882949 -0
    outer loop
      vertex 1.45 2.51147 0
      vertex 1.27128 2.6065 4
      vertex 1.45 2.51147 4
    endloop
  endfacet
  facet normal 0.46947 0.882949 0
    outer loop
      vertex 1.27128 2.6065 4
      vertex 1.45 2.51147 0
      vertex 1.27128 2.6065 0
    endloop
  endfacet
  facet normal 0.587786 0.809017 -0
    outer loop
      vertex 1.78542 2.28523 0
      vertex 1.62166 2.40421 4
      vertex 1.78542 2.28523 4
    endloop
  endfacet
  facet normal 0.587786 0.809017 0
    outer loop
      vertex 1.62166 2.40421 4
      vertex 1.78542 2.28523 0
      vertex 1.62166 2.40421 0
    endloop
  endfacet
  facet normal -0.970296 0.241923 0
    outer loop
      vertex -2.83663 0.602943 0
      vertex -2.78766 0.799348 4
      vertex -2.78766 0.799348 0
    endloop
  endfacet
  facet normal -0.970296 0.241923 0
    outer loop
      vertex -2.78766 0.799348 4
      vertex -2.83663 0.602943 0
      vertex -2.83663 0.602943 4
    endloop
  endfacet
  facet normal -0.829037 0.559194 0
    outer loop
      vertex -2.45934 1.53677 0
      vertex -2.34615 1.70458 4
      vertex -2.34615 1.70458 0
    endloop
  endfacet
  facet normal -0.829037 0.559194 0
    outer loop
      vertex -2.34615 1.70458 4
      vertex -2.45934 1.53677 0
      vertex -2.45934 1.53677 4
    endloop
  endfacet
  facet normal -0.866024 0.500002 0
    outer loop
      vertex -2.56055 1.36147 0
      vertex -2.45934 1.53677 4
      vertex -2.45934 1.53677 0
    endloop
  endfacet
  facet normal -0.866024 0.500002 0
    outer loop
      vertex -2.45934 1.53677 4
      vertex -2.56055 1.36147 0
      vertex -2.56055 1.36147 4
    endloop
  endfacet
  facet normal -0.984808 0.173645 0
    outer loop
      vertex -2.87178 0.403602 0
      vertex -2.83663 0.602943 4
      vertex -2.83663 0.602943 0
    endloop
  endfacet
  facet normal -0.984808 0.173645 0
    outer loop
      vertex -2.83663 0.602943 4
      vertex -2.87178 0.403602 0
      vertex -2.87178 0.403602 4
    endloop
  endfacet
  facet normal -0.529922 0.848046 0
    outer loop
      vertex -1.45 2.51147 0
      vertex -1.62166 2.40421 4
      vertex -1.45 2.51147 4
    endloop
  endfacet
  facet normal -0.529922 0.848046 0
    outer loop
      vertex -1.62166 2.40421 4
      vertex -1.45 2.51147 0
      vertex -1.62166 2.40421 0
    endloop
  endfacet
  facet normal -0.46947 0.882949 0
    outer loop
      vertex -1.27128 2.6065 0
      vertex -1.45 2.51147 4
      vertex -1.27128 2.6065 4
    endloop
  endfacet
  facet normal -0.46947 0.882949 0
    outer loop
      vertex -1.45 2.51147 4
      vertex -1.27128 2.6065 0
      vertex -1.45 2.51147 0
    endloop
  endfacet
  facet normal -0.275638 0.961261 0
    outer loop
      vertex -0.701573 2.81386 0
      vertex -0.896149 2.75806 4
      vertex -0.701573 2.81386 4
    endloop
  endfacet
  facet normal -0.275638 0.961261 0
    outer loop
      vertex -0.896149 2.75806 4
      vertex -0.701573 2.81386 0
      vertex -0.896149 2.75806 0
    endloop
  endfacet
  facet normal -0.0697527 0.997564 0
    outer loop
      vertex -0.101208 2.89823 0
      vertex -0.303132 2.88411 4
      vertex -0.101208 2.89823 4
    endloop
  endfacet
  facet normal -0.0697527 0.997564 0
    outer loop
      vertex -0.303132 2.88411 4
      vertex -0.101208 2.89823 0
      vertex -0.303132 2.88411 0
    endloop
  endfacet
  facet normal 0.694657 -0.719341 0
    outer loop
      vertex 1.94048 -2.15512 0
      vertex 2.08609 -2.01451 4
      vertex 1.94048 -2.15512 4
    endloop
  endfacet
  facet normal 0.694657 -0.719341 0
    outer loop
      vertex 2.08609 -2.01451 4
      vertex 1.94048 -2.15512 0
      vertex 2.08609 -2.01451 0
    endloop
  endfacet
  facet normal 0.829037 -0.559194 0
    outer loop
      vertex 2.34615 -1.70458 4
      vertex 2.45934 -1.53677 0
      vertex 2.45934 -1.53677 4
    endloop
  endfacet
  facet normal 0.829037 -0.559194 0
    outer loop
      vertex 2.45934 -1.53677 0
      vertex 2.34615 -1.70458 4
      vertex 2.34615 -1.70458 0
    endloop
  endfacet
  facet normal -0.694657 -0.719341 0
    outer loop
      vertex -2.08609 -2.01451 0
      vertex -1.94048 -2.15512 4
      vertex -2.08609 -2.01451 4
    endloop
  endfacet
  facet normal -0.694657 -0.719341 -0
    outer loop
      vertex -1.94048 -2.15512 4
      vertex -2.08609 -2.01451 0
      vertex -1.94048 -2.15512 0
    endloop
  endfacet
  facet normal -0.898795 -0.43837 0
    outer loop
      vertex -2.56055 -1.36147 0
      vertex -2.64928 -1.17954 4
      vertex -2.64928 -1.17954 0
    endloop
  endfacet
  facet normal -0.898795 -0.43837 0
    outer loop
      vertex -2.64928 -1.17954 4
      vertex -2.56055 -1.36147 0
      vertex -2.56055 -1.36147 4
    endloop
  endfacet
  facet normal -0.829037 -0.559194 0
    outer loop
      vertex -2.34615 -1.70458 0
      vertex -2.45934 -1.53677 4
      vertex -2.45934 -1.53677 0
    endloop
  endfacet
  facet normal -0.829037 -0.559194 0
    outer loop
      vertex -2.45934 -1.53677 4
      vertex -2.34615 -1.70458 0
      vertex -2.34615 -1.70458 4
    endloop
  endfacet
  facet normal 0.0697527 -0.997564 0
    outer loop
      vertex 0.101208 -2.89823 0
      vertex 0.303132 -2.88411 4
      vertex 0.101208 -2.89823 4
    endloop
  endfacet
  facet normal 0.0697527 -0.997564 0
    outer loop
      vertex 0.303132 -2.88411 4
      vertex 0.101208 -2.89823 0
      vertex 0.303132 -2.88411 0
    endloop
  endfacet
  facet normal 0.20791 -0.978148 0
    outer loop
      vertex 0.503579 -2.85594 0
      vertex 0.701573 -2.81386 4
      vertex 0.503579 -2.85594 4
    endloop
  endfacet
  facet normal 0.20791 -0.978148 0
    outer loop
      vertex 0.701573 -2.81386 4
      vertex 0.503579 -2.85594 0
      vertex 0.701573 -2.81386 0
    endloop
  endfacet
  facet normal 0.984808 0.173645 0
    outer loop
      vertex 2.87178 0.403602 4
      vertex 2.83663 0.602943 0
      vertex 2.83663 0.602943 4
    endloop
  endfacet
  facet normal 0.984808 0.173645 0
    outer loop
      vertex 2.83663 0.602943 0
      vertex 2.87178 0.403602 4
      vertex 2.87178 0.403602 0
    endloop
  endfacet
  facet normal 0.994522 0.104528 0
    outer loop
      vertex 2.89293 0.202293 4
      vertex 2.87178 0.403602 0
      vertex 2.87178 0.403602 4
    endloop
  endfacet
  facet normal 0.994522 0.104528 0
    outer loop
      vertex 2.87178 0.403602 0
      vertex 2.89293 0.202293 4
      vertex 2.89293 0.202293 0
    endloop
  endfacet
  facet normal 0.927184 0.374605 0
    outer loop
      vertex 2.72511 0.991858 4
      vertex 2.64928 1.17954 0
      vertex 2.64928 1.17954 4
    endloop
  endfacet
  facet normal 0.927184 0.374605 0
    outer loop
      vertex 2.64928 1.17954 0
      vertex 2.72511 0.991858 4
      vertex 2.72511 0.991858 0
    endloop
  endfacet
  facet normal 0.951056 0.309019 0
    outer loop
      vertex 2.78766 0.799348 4
      vertex 2.72511 0.991858 0
      vertex 2.72511 0.991858 4
    endloop
  endfacet
  facet normal 0.951056 0.309019 0
    outer loop
      vertex 2.72511 0.991858 0
      vertex 2.78766 0.799348 4
      vertex 2.78766 0.799348 0
    endloop
  endfacet
  facet normal 0.788011 0.615662 0
    outer loop
      vertex 2.34615 1.70458 4
      vertex 2.22153 1.86408 0
      vertex 2.22153 1.86408 4
    endloop
  endfacet
  facet normal 0.788011 0.615662 0
    outer loop
      vertex 2.22153 1.86408 0
      vertex 2.34615 1.70458 4
      vertex 2.34615 1.70458 0
    endloop
  endfacet
  facet normal 0.743148 0.669127 0
    outer loop
      vertex 2.22153 1.86408 4
      vertex 2.08609 2.01451 0
      vertex 2.08609 2.01451 4
    endloop
  endfacet
  facet normal 0.743148 0.669127 0
    outer loop
      vertex 2.08609 2.01451 0
      vertex 2.22153 1.86408 4
      vertex 2.22153 1.86408 0
    endloop
  endfacet
  facet normal 0.20791 0.978148 -0
    outer loop
      vertex 0.701573 2.81386 0
      vertex 0.503579 2.85594 4
      vertex 0.701573 2.81386 4
    endloop
  endfacet
  facet normal 0.20791 0.978148 0
    outer loop
      vertex 0.503579 2.85594 4
      vertex 0.701573 2.81386 0
      vertex 0.503579 2.85594 0
    endloop
  endfacet
  facet normal 0.406735 0.913546 -0
    outer loop
      vertex 1.27128 2.6065 0
      vertex 1.08636 2.68883 4
      vertex 1.27128 2.6065 4
    endloop
  endfacet
  facet normal 0.406735 0.913546 0
    outer loop
      vertex 1.08636 2.68883 4
      vertex 1.27128 2.6065 0
      vertex 1.08636 2.68883 0
    endloop
  endfacet
  facet normal 0.642786 0.766046 -0
    outer loop
      vertex 1.94048 2.15512 0
      vertex 1.78542 2.28523 4
      vertex 1.94048 2.15512 4
    endloop
  endfacet
  facet normal 0.642786 0.766046 0
    outer loop
      vertex 1.78542 2.28523 4
      vertex 1.94048 2.15512 0
      vertex 1.78542 2.28523 0
    endloop
  endfacet
  facet normal -0.788011 0.615662 0
    outer loop
      vertex -2.34615 1.70458 0
      vertex -2.22153 1.86408 4
      vertex -2.22153 1.86408 0
    endloop
  endfacet
  facet normal -0.788011 0.615662 0
    outer loop
      vertex -2.22153 1.86408 4
      vertex -2.34615 1.70458 0
      vertex -2.34615 1.70458 4
    endloop
  endfacet
  facet normal -0.743148 0.669127 0
    outer loop
      vertex -2.22153 1.86408 0
      vertex -2.08609 2.01451 4
      vertex -2.08609 2.01451 0
    endloop
  endfacet
  facet normal -0.743148 0.669127 0
    outer loop
      vertex -2.08609 2.01451 4
      vertex -2.22153 1.86408 0
      vertex -2.22153 1.86408 4
    endloop
  endfacet
  facet normal -0.951056 0.309019 0
    outer loop
      vertex -2.78766 0.799348 0
      vertex -2.72511 0.991858 4
      vertex -2.72511 0.991858 0
    endloop
  endfacet
  facet normal -0.951056 0.309019 0
    outer loop
      vertex -2.72511 0.991858 4
      vertex -2.78766 0.799348 0
      vertex -2.78766 0.799348 4
    endloop
  endfacet
  facet normal -0.927184 0.374605 0
    outer loop
      vertex -2.72511 0.991858 0
      vertex -2.64928 1.17954 4
      vertex -2.64928 1.17954 0
    endloop
  endfacet
  facet normal -0.927184 0.374605 0
    outer loop
      vertex -2.64928 1.17954 4
      vertex -2.72511 0.991858 0
      vertex -2.72511 0.991858 4
    endloop
  endfacet
  facet normal -0.994522 0.104528 0
    outer loop
      vertex -2.89293 0.202293 0
      vertex -2.87178 0.403602 4
      vertex -2.87178 0.403602 0
    endloop
  endfacet
  facet normal -0.994522 0.104528 0
    outer loop
      vertex -2.87178 0.403602 4
      vertex -2.89293 0.202293 0
      vertex -2.89293 0.202293 4
    endloop
  endfacet
  facet normal -0 0 1
    outer loop
      vertex -1.62166 -2.40421 4
      vertex -0.7 -2.5 4
      vertex -0.7 -0.7 4
    endloop
  endfacet
  facet normal 0 0 1
    outer loop
      vertex -0.7 -2.5 4
      vertex -0.896149 -2.75806 4
      vertex -0.701573 -2.81386 4
    endloop
  endfacet
  facet normal 0 0 1
    outer loop
      vertex -0.7 -2.5 4
      vertex -1.08636 -2.68883 4
      vertex -0.896149 -2.75806 4
    endloop
  endfacet
  facet normal 0 0 1
    outer loop
      vertex -0.7 -2.5 4
      vertex -1.27128 -2.6065 4
      vertex -1.08636 -2.68883 4
    endloop
  endfacet
  facet normal 0 0 1
    outer loop
      vertex -0.7 -2.5 4
      vertex -1.45 -2.51147 4
      vertex -1.27128 -2.6065 4
    endloop
  endfacet
  facet normal 0 0 1
    outer loop
      vertex -0.7 -2.5 4
      vertex -1.62166 -2.40421 4
      vertex -1.45 -2.51147 4
    endloop
  endfacet
  facet normal 0 0 1
    outer loop
      vertex -0.7 -0.7 4
      vertex -1.78542 -2.28523 4
      vertex -1.62166 -2.40421 4
    endloop
  endfacet
  facet normal 0 0 1
    outer loop
      vertex -0.7 -0.7 4
      vertex -1.94048 -2.15512 4
      vertex -1.78542 -2.28523 4
    endloop
  endfacet
  facet normal 0 0 1
    outer loop
      vertex -0.7 -0.7 4
      vertex -2.08609 -2.01451 4
      vertex -1.94048 -2.15512 4
    endloop
  endfacet
  facet normal 0 0 1
    outer loop
      vertex -0.7 -0.7 4
      vertex -2.22153 -1.86408 4
      vertex -2.08609 -2.01451 4
    endloop
  endfacet
  facet normal 0 0 1
    outer loop
      vertex -0.7 -0.7 4
      vertex -2.34615 -1.70458 4
      vertex -2.22153 -1.86408 4
    endloop
  endfacet
  facet normal 0 0 1
    outer loop
      vertex -0.7 -0.7 4
      vertex -2.45934 -1.53677 4
      vertex -2.34615 -1.70458 4
    endloop
  endfacet
  facet normal -0 0 1
    outer loop
      vertex -2.5 -0.7 4
      vertex -2.45934 -1.53677 4
      vertex -0.7 -0.7 4
    endloop
  endfacet
  facet normal 0 0 1
    outer loop
      vertex -2.5 -0.7 4
      vertex -2.56055 -1.36147 4
      vertex -2.45934 -1.53677 4
    endloop
  endfacet
  facet normal -0 0 1
    outer loop
      vertex -2.72511 0.991858 4
      vertex -2.5 0.7 4
      vertex -2.64928 1.17954 4
    endloop
  endfacet
  facet normal -0 0 1
    outer loop
      vertex -2.78766 0.799348 4
      vertex -2.5 0.7 4
      vertex -2.72511 0.991858 4
    endloop
  endfacet
  facet normal 0 0 1
    outer loop
      vertex -2.5 -0.7 4
      vertex -2.64928 -1.17954 4
      vertex -2.56055 -1.36147 4
    endloop
  endfacet
  facet normal 0 0 1
    outer loop
      vertex -2.83663 0.602943 4
      vertex -2.5 0.7 4
      vertex -2.78766 0.799348 4
    endloop
  endfacet
  facet normal 0 0 1
    outer loop
      vertex -2.5 -0.7 4
      vertex -2.72511 -0.991858 4
      vertex -2.64928 -1.17954 4
    endloop
  endfacet
  facet normal 0 0 1
    outer loop
      vertex -2.87178 0.403602 4
      vertex -2.5 0.7 4
      vertex -2.83663 0.602943 4
    endloop
  endfacet
  facet normal 0 0 1
    outer loop
      vertex -2.5 -0.7 4
      vertex -2.78766 -0.799348 4
      vertex -2.72511 -0.991858 4
    endloop
  endfacet
  facet normal 0 0 1
    outer loop
      vertex -2.89293 0.202293 4
      vertex -2.5 0.7 4
      vertex -2.87178 0.403602 4
    endloop
  endfacet
  facet normal 0 0 1
    outer loop
      vertex -2.5 -0.7 4
      vertex -2.83663 -0.602943 4
      vertex -2.78766 -0.799348 4
    endloop
  endfacet
  facet normal 0 0 1
    outer loop
      vertex -2.9 0 4
      vertex -2.5 0.7 4
      vertex -2.89293 0.202293 4
    endloop
  endfacet
  facet normal 0 0 1
    outer loop
      vertex -2.5 -0.7 4
      vertex -2.87178 -0.403602 4
      vertex -2.83663 -0.602943 4
    endloop
  endfacet
  facet normal 0 0 1
    outer loop
      vertex -2.5 0.7 4
      vertex -2.9 0 4
      vertex -2.5 -0.7 4
    endloop
  endfacet
  facet normal 0 0 1
    outer loop
      vertex -2.5 -0.7 4
      vertex -2.89293 -0.202293 4
      vertex -2.87178 -0.403602 4
    endloop
  endfacet
  facet normal 0 0 1
    outer loop
      vertex -2.5 -0.7 4
      vertex -2.9 0 4
      vertex -2.89293 -0.202293 4
    endloop
  endfacet
  facet normal 0 0 1
    outer loop
      vertex 0.503579 2.85594 4
      vertex 0.7 2.5 4
      vertex 0.701573 2.81386 4
    endloop
  endfacet
  facet normal 0 0 1
    outer loop
      vertex 0.303132 2.88411 4
      vertex 0.7 2.5 4
      vertex 0.503579 2.85594 4
    endloop
  endfacet
  facet normal 0 0 1
    outer loop
      vertex 0.101208 2.89823 4
      vertex 0.7 2.5 4
      vertex 0.303132 2.88411 4
    endloop
  endfacet
  facet normal -0 0 1
    outer loop
      vertex -0.101208 2.89823 4
      vertex 0.7 2.5 4
      vertex 0.101208 2.89823 4
    endloop
  endfacet
  facet normal 0 0 1
    outer loop
      vertex -0.7 2.5 4
      vertex -0.101208 2.89823 4
      vertex -0.303132 2.88411 4
    endloop
  endfacet
  facet normal 0 0 1
    outer loop
      vertex -0.7 2.5 4
      vertex -0.303132 2.88411 4
      vertex -0.503579 2.85594 4
    endloop
  endfacet
  facet normal 0 0 1
    outer loop
      vertex -0.101208 2.89823 4
      vertex -0.7 2.5 4
      vertex 0.7 2.5 4
    endloop
  endfacet
  facet normal -0 0 1
    outer loop
      vertex -0.701573 2.81386 4
      vertex -0.7 2.5 4
      vertex -0.503579 2.85594 4
    endloop
  endfacet
  facet normal -0 0 1
    outer loop
      vertex -0.896149 2.75806 4
      vertex -0.7 2.5 4
      vertex -0.701573 2.81386 4
    endloop
  endfacet
  facet normal -0 0 1
    outer loop
      vertex -1.08636 2.68883 4
      vertex -0.7 2.5 4
      vertex -0.896149 2.75806 4
    endloop
  endfacet
  facet normal -0 0 1
    outer loop
      vertex -1.27128 2.6065 4
      vertex -0.7 2.5 4
      vertex -1.08636 2.68883 4
    endloop
  endfacet
  facet normal -0 0 1
    outer loop
      vertex -1.45 2.51147 4
      vertex -0.7 2.5 4
      vertex -1.27128 2.6065 4
    endloop
  endfacet
  facet normal 0 0 1
    outer loop
      vertex -1.62166 2.40421 4
      vertex -0.7 2.5 4
      vertex -1.45 2.51147 4
    endloop
  endfacet
  facet normal 0 0 1
    outer loop
      vertex -0.7 2.5 4
      vertex -1.62166 2.40421 4
      vertex -0.7 0.7 4
    endloop
  endfacet
  facet normal -0 0 1
    outer loop
      vertex -1.78542 2.28523 4
      vertex -0.7 0.7 4
      vertex -1.62166 2.40421 4
    endloop
  endfacet
  facet normal -0 0 1
    outer loop
      vertex -1.94048 2.15512 4
      vertex -0.7 0.7 4
      vertex -1.78542 2.28523 4
    endloop
  endfacet
  facet normal -0 0 1
    outer loop
      vertex -2.08609 2.01451 4
      vertex -0.7 0.7 4
      vertex -1.94048 2.15512 4
    endloop
  endfacet
  facet normal -0 0 1
    outer loop
      vertex -2.22153 1.86408 4
      vertex -0.7 0.7 4
      vertex -2.08609 2.01451 4
    endloop
  endfacet
  facet normal -0 0 1
    outer loop
      vertex -2.34615 1.70458 4
      vertex -0.7 0.7 4
      vertex -2.22153 1.86408 4
    endloop
  endfacet
  facet normal -0 0 1
    outer loop
      vertex -2.45934 1.53677 4
      vertex -0.7 0.7 4
      vertex -2.34615 1.70458 4
    endloop
  endfacet
  facet normal 0 0 1
    outer loop
      vertex -2.45934 1.53677 4
      vertex -2.5 0.7 4
      vertex -0.7 0.7 4
    endloop
  endfacet
  facet normal -0 0 1
    outer loop
      vertex -2.64928 1.17954 4
      vertex -2.5 0.7 4
      vertex -2.56055 1.36147 4
    endloop
  endfacet
  facet normal -0 0 1
    outer loop
      vertex -2.56055 1.36147 4
      vertex -2.5 0.7 4
      vertex -2.45934 1.53677 4
    endloop
  endfacet
  facet normal 0 0 1
    outer loop
      vertex 2.5 0.7 4
      vertex 2.9 0 4
      vertex 2.89293 0.202293 4
    endloop
  endfacet
  facet normal 0 0 1
    outer loop
      vertex 2.5 0.7 4
      vertex 2.89293 0.202293 4
      vertex 2.87178 0.403602 4
    endloop
  endfacet
  facet normal 0 0 1
    outer loop
      vertex 2.5 -0.7 4
      vertex 2.9 0 4
      vertex 2.5 0.7 4
    endloop
  endfacet
  facet normal 0 0 1
    outer loop
      vertex 2.5 0.7 4
      vertex 2.87178 0.403602 4
      vertex 2.83663 0.602943 4
    endloop
  endfacet
  facet normal 0 0 1
    outer loop
      vertex 2.9 0 4
      vertex 2.5 -0.7 4
      vertex 2.89293 -0.202293 4
    endloop
  endfacet
  facet normal -0 0 1
    outer loop
      vertex 2.5 0.7 4
      vertex 2.83663 0.602943 4
      vertex 2.78766 0.799348 4
    endloop
  endfacet
  facet normal 0 0 1
    outer loop
      vertex 2.89293 -0.202293 4
      vertex 2.5 -0.7 4
      vertex 2.87178 -0.403602 4
    endloop
  endfacet
  facet normal 0 0 1
    outer loop
      vertex 2.5 0.7 4
      vertex 2.78766 0.799348 4
      vertex 2.72511 0.991858 4
    endloop
  endfacet
  facet normal 0 0 1
    outer loop
      vertex 2.87178 -0.403602 4
      vertex 2.5 -0.7 4
      vertex 2.83663 -0.602943 4
    endloop
  endfacet
  facet normal 0 0 1
    outer loop
      vertex 2.5 0.7 4
      vertex 2.72511 0.991858 4
      vertex 2.64928 1.17954 4
    endloop
  endfacet
  facet normal 0 0 1
    outer loop
      vertex 2.83663 -0.602943 4
      vertex 2.5 -0.7 4
      vertex 2.78766 -0.799348 4
    endloop
  endfacet
  facet normal 0 0 1
    outer loop
      vertex 2.5 0.7 4
      vertex 2.64928 1.17954 4
      vertex 2.56055 1.36147 4
    endloop
  endfacet
  facet normal 0 0 1
    outer loop
      vertex 2.78766 -0.799348 4
      vertex 2.5 -0.7 4
      vertex 2.72511 -0.991858 4
    endloop
  endfacet
  facet normal 0 0 1
    outer loop
      vertex 2.72511 -0.991858 4
      vertex 2.5 -0.7 4
      vertex 2.64928 -1.17954 4
    endloop
  endfacet
  facet normal 0 0 1
    outer loop
      vertex 2.45934 1.53677 4
      vertex 2.5 0.7 4
      vertex 2.56055 1.36147 4
    endloop
  endfacet
  facet normal 0 0 1
    outer loop
      vertex 2.34615 1.70458 4
      vertex 2.5 0.7 4
      vertex 2.45934 1.53677 4
    endloop
  endfacet
  facet normal 0 0 1
    outer loop
      vertex 0.7 0.7 4
      vertex 2.34615 1.70458 4
      vertex 2.22153 1.86408 4
    endloop
  endfacet
  facet normal 0 0 1
    outer loop
      vertex 0.7 0.7 4
      vertex 2.22153 1.86408 4
      vertex 2.08609 2.01451 4
    endloop
  endfacet
  facet normal 0 0 1
    outer loop
      vertex 0.7 0.7 4
      vertex 2.08609 2.01451 4
      vertex 1.94048 2.15512 4
    endloop
  endfacet
  facet normal 0 0 1
    outer loop
      vertex 0.7 0.7 4
      vertex 1.94048 2.15512 4
      vertex 1.78542 2.28523 4
    endloop
  endfacet
  facet normal 0 0 1
    outer loop
      vertex 0.7 0.7 4
      vertex 1.78542 2.28523 4
      vertex 1.62166 2.40421 4
    endloop
  endfacet
  facet normal -0 0 1
    outer loop
      vertex 0.7 2.5 4
      vertex 1.62166 2.40421 4
      vertex 1.45 2.51147 4
    endloop
  endfacet
  facet normal 0 0 1
    outer loop
      vertex 0.7 2.5 4
      vertex 1.45 2.51147 4
      vertex 1.27128 2.6065 4
    endloop
  endfacet
  facet normal 0 0 1
    outer loop
      vertex 0.7 2.5 4
      vertex 1.27128 2.6065 4
      vertex 1.08636 2.68883 4
    endloop
  endfacet
  facet normal 0 0 1
    outer loop
      vertex 0.7 2.5 4
      vertex 1.08636 2.68883 4
      vertex 0.896149 2.75806 4
    endloop
  endfacet
  facet normal 0 0 1
    outer loop
      vertex 0.7 2.5 4
      vertex 0.896149 2.75806 4
      vertex 0.701573 2.81386 4
    endloop
  endfacet
  facet normal 0 0 1
    outer loop
      vertex 1.62166 2.40421 4
      vertex 0.7 2.5 4
      vertex 0.7 0.7 4
    endloop
  endfacet
  facet normal 0 0 1
    outer loop
      vertex 2.34615 1.70458 4
      vertex 0.7 0.7 4
      vertex 2.5 0.7 4
    endloop
  endfacet
  facet normal 0 0 1
    outer loop
      vertex 2.64928 -1.17954 4
      vertex 2.5 -0.7 4
      vertex 2.56055 -1.36147 4
    endloop
  endfacet
  facet normal 0 0 1
    outer loop
      vertex 2.5 -0.7 4
      vertex 2.45934 -1.53677 4
      vertex 2.56055 -1.36147 4
    endloop
  endfacet
  facet normal 0 0 1
    outer loop
      vertex 2.5 -0.7 4
      vertex 2.34615 -1.70458 4
      vertex 2.45934 -1.53677 4
    endloop
  endfacet
  facet normal -0 0 1
    outer loop
      vertex 0.7 -0.7 4
      vertex 2.34615 -1.70458 4
      vertex 2.5 -0.7 4
    endloop
  endfacet
  facet normal 0 0 1
    outer loop
      vertex 2.34615 -1.70458 4
      vertex 0.7 -0.7 4
      vertex 2.22153 -1.86408 4
    endloop
  endfacet
  facet normal 0 0 1
    outer loop
      vertex 2.22153 -1.86408 4
      vertex 0.7 -0.7 4
      vertex 2.08609 -2.01451 4
    endloop
  endfacet
  facet normal 0 0 1
    outer loop
      vertex 2.08609 -2.01451 4
      vertex 0.7 -0.7 4
      vertex 1.94048 -2.15512 4
    endloop
  endfacet
  facet normal 0 0 1
    outer loop
      vertex 1.94048 -2.15512 4
      vertex 0.7 -0.7 4
      vertex 1.78542 -2.28523 4
    endloop
  endfacet
  facet normal 0 0 1
    outer loop
      vertex 1.78542 -2.28523 4
      vertex 0.7 -0.7 4
      vertex 1.62166 -2.40421 4
    endloop
  endfacet
  facet normal 0 0 1
    outer loop
      vertex 0.7 -2.5 4
      vertex 1.62166 -2.40421 4
      vertex 0.7 -0.7 4
    endloop
  endfacet
  facet normal 0 0 1
    outer loop
      vertex 1.62166 -2.40421 4
      vertex 0.7 -2.5 4
      vertex 1.45 -2.51147 4
    endloop
  endfacet
  facet normal 0 0 1
    outer loop
      vertex 1.45 -2.51147 4
      vertex 0.7 -2.5 4
      vertex 1.27128 -2.6065 4
    endloop
  endfacet
  facet normal 0 0 1
    outer loop
      vertex 1.08636 -2.68883 4
      vertex 0.7 -2.5 4
      vertex 0.896149 -2.75806 4
    endloop
  endfacet
  facet normal 0 0 1
    outer loop
      vertex 1.27128 -2.6065 4
      vertex 0.7 -2.5 4
      vertex 1.08636 -2.68883 4
    endloop
  endfacet
  facet normal 0 0 1
    outer loop
      vertex 0.896149 -2.75806 4
      vertex 0.7 -2.5 4
      vertex 0.701573 -2.81386 4
    endloop
  endfacet
  facet normal 0 0 1
    outer loop
      vertex 0.7 -2.5 4
      vertex 0.503579 -2.85594 4
      vertex 0.701573 -2.81386 4
    endloop
  endfacet
  facet normal 0 0 1
    outer loop
      vertex 0.7 -2.5 4
      vertex 0.303132 -2.88411 4
      vertex 0.503579 -2.85594 4
    endloop
  endfacet
  facet normal 0 0 1
    outer loop
      vertex 0.7 -2.5 4
      vertex 0.101208 -2.89823 4
      vertex 0.303132 -2.88411 4
    endloop
  endfacet
  facet normal 0 0 1
    outer loop
      vertex 0.7 -2.5 4
      vertex -0.101208 -2.89823 4
      vertex 0.101208 -2.89823 4
    endloop
  endfacet
  facet normal -0 0 1
    outer loop
      vertex -0.7 -2.5 4
      vertex -0.101208 -2.89823 4
      vertex 0.7 -2.5 4
    endloop
  endfacet
  facet normal 0 0 1
    outer loop
      vertex -0.101208 -2.89823 4
      vertex -0.7 -2.5 4
      vertex -0.303132 -2.88411 4
    endloop
  endfacet
  facet normal 0 0 1
    outer loop
      vertex -0.303132 -2.88411 4
      vertex -0.7 -2.5 4
      vertex -0.503579 -2.85594 4
    endloop
  endfacet
  facet normal 0 0 1
    outer loop
      vertex -0.503579 -2.85594 4
      vertex -0.7 -2.5 4
      vertex -0.701573 -2.81386 4
    endloop
  endfacet
  facet normal -0.587786 0.809017 0
    outer loop
      vertex -1.62166 2.40421 0
      vertex -1.78542 2.28523 4
      vertex -1.62166 2.40421 4
    endloop
  endfacet
  facet normal -0.587786 0.809017 0
    outer loop
      vertex -1.78542 2.28523 4
      vertex -1.62166 2.40421 0
      vertex -1.78542 2.28523 0
    endloop
  endfacet
  facet normal -0.642786 0.766046 0
    outer loop
      vertex -1.78542 2.28523 0
      vertex -1.94048 2.15512 4
      vertex -1.78542 2.28523 4
    endloop
  endfacet
  facet normal -0.642786 0.766046 0
    outer loop
      vertex -1.94048 2.15512 4
      vertex -1.78542 2.28523 0
      vertex -1.94048 2.15512 0
    endloop
  endfacet
  facet normal -0.342021 0.939692 0
    outer loop
      vertex -0.896149 2.75806 0
      vertex -1.08636 2.68883 4
      vertex -0.896149 2.75806 4
    endloop
  endfacet
  facet normal -0.342021 0.939692 0
    outer loop
      vertex -1.08636 2.68883 4
      vertex -0.896149 2.75806 0
      vertex -1.08636 2.68883 0
    endloop
  endfacet
  facet normal -0.139176 0.990268 0
    outer loop
      vertex -0.303132 2.88411 0
      vertex -0.503579 2.85594 4
      vertex -0.303132 2.88411 4
    endloop
  endfacet
  facet normal -0.139176 0.990268 0
    outer loop
      vertex -0.503579 2.85594 4
      vertex -0.303132 2.88411 0
      vertex -0.503579 2.85594 0
    endloop
  endfacet
  facet normal 0.999391 -0.0349024 0
    outer loop
      vertex 2.89293 -0.202293 4
      vertex 2.9 0 0
      vertex 2.9 0 4
    endloop
  endfacet
  facet normal 0.999391 -0.0349024 0
    outer loop
      vertex 2.9 0 0
      vertex 2.89293 -0.202293 4
      vertex 2.89293 -0.202293 0
    endloop
  endfacet
  facet normal 0.927184 -0.374605 0
    outer loop
      vertex 2.64928 -1.17954 4
      vertex 2.72511 -0.991858 0
      vertex 2.72511 -0.991858 4
    endloop
  endfacet
  facet normal 0.927184 -0.374605 0
    outer loop
      vertex 2.72511 -0.991858 0
      vertex 2.64928 -1.17954 4
      vertex 2.64928 -1.17954 0
    endloop
  endfacet
  facet normal 0.984808 -0.173645 0
    outer loop
      vertex 2.83663 -0.602943 4
      vertex 2.87178 -0.403602 0
      vertex 2.87178 -0.403602 4
    endloop
  endfacet
  facet normal 0.984808 -0.173645 0
    outer loop
      vertex 2.87178 -0.403602 0
      vertex 2.83663 -0.602943 4
      vertex 2.83663 -0.602943 0
    endloop
  endfacet
  facet normal 0.994522 -0.104528 0
    outer loop
      vertex 2.87178 -0.403602 4
      vertex 2.89293 -0.202293 0
      vertex 2.89293 -0.202293 4
    endloop
  endfacet
  facet normal 0.994522 -0.104528 0
    outer loop
      vertex 2.89293 -0.202293 0
      vertex 2.87178 -0.403602 4
      vertex 2.87178 -0.403602 0
    endloop
  endfacet
  facet normal 0.743148 -0.669127 0
    outer loop
      vertex 2.08609 -2.01451 4
      vertex 2.22153 -1.86408 0
      vertex 2.22153 -1.86408 4
    endloop
  endfacet
  facet normal 0.743148 -0.669127 0
    outer loop
      vertex 2.22153 -1.86408 0
      vertex 2.08609 -2.01451 4
      vertex 2.08609 -2.01451 0
    endloop
  endfacet
  facet normal -0.20791 -0.978148 0
    outer loop
      vertex -0.701573 -2.81386 0
      vertex -0.503579 -2.85594 4
      vertex -0.701573 -2.81386 4
    endloop
  endfacet
  facet normal -0.20791 -0.978148 -0
    outer loop
      vertex -0.503579 -2.85594 4
      vertex -0.701573 -2.81386 0
      vertex -0.503579 -2.85594 0
    endloop
  endfacet
  facet normal -0.788011 -0.615662 0
    outer loop
      vertex -2.22153 -1.86408 0
      vertex -2.34615 -1.70458 4
      vertex -2.34615 -1.70458 0
    endloop
  endfacet
  facet normal -0.788011 -0.615662 0
    outer loop
      vertex -2.34615 -1.70458 4
      vertex -2.22153 -1.86408 0
      vertex -2.22153 -1.86408 4
    endloop
  endfacet
  facet normal -0.970296 -0.241923 0
    outer loop
      vertex -2.78766 -0.799348 0
      vertex -2.83663 -0.602943 4
      vertex -2.83663 -0.602943 0
    endloop
  endfacet
  facet normal -0.970296 -0.241923 0
    outer loop
      vertex -2.83663 -0.602943 4
      vertex -2.78766 -0.799348 0
      vertex -2.78766 -0.799348 4
    endloop
  endfacet
  facet normal -0.951056 -0.309019 0
    outer loop
      vertex -2.72511 -0.991858 0
      vertex -2.78766 -0.799348 4
      vertex -2.78766 -0.799348 0
    endloop
  endfacet
  facet normal -0.951056 -0.309019 0
    outer loop
      vertex -2.78766 -0.799348 4
      vertex -2.72511 -0.991858 0
      vertex -2.72511 -0.991858 4
    endloop
  endfacet
  facet normal 0 0 -1
    outer loop
      vertex -2.025 0.75 0
      vertex -0.75 2.025 0
      vertex -0.75 0.75 0
    endloop
  endfacet
  facet normal 0 0 -1
    outer loop
      vertex -0.75 2.025 0
      vertex -1.08636 2.68883 0
      vertex -0.896149 2.75806 0
    endloop
  endfacet
  facet normal 0 0 -1
    outer loop
      vertex -0.75 2.025 0
      vertex -1.27128 2.6065 0
      vertex -1.08636 2.68883 0
    endloop
  endfacet
  facet normal 0 0 -1
    outer loop
      vertex -0.75 2.025 0
      vertex -1.45 2.51147 0
      vertex -1.27128 2.6065 0
    endloop
  endfacet
  facet normal 0 0 -1
    outer loop
      vertex -0.75 2.025 0
      vertex -1.62166 2.40421 0
      vertex -1.45 2.51147 0
    endloop
  endfacet
  facet normal 0 0 -1
    outer loop
      vertex -0.75 2.025 0
      vertex -1.78542 2.28523 0
      vertex -1.62166 2.40421 0
    endloop
  endfacet
  facet normal 0 0 -1
    outer loop
      vertex -0.75 2.025 0
      vertex -1.94048 2.15512 0
      vertex -1.78542 2.28523 0
    endloop
  endfacet
  facet normal 0 0 -1
    outer loop
      vertex -0.75 2.025 0
      vertex -2.025 0.75 0
      vertex -2.08609 2.01451 0
    endloop
  endfacet
  facet normal -0 0 -1
    outer loop
      vertex -0.75 2.025 0
      vertex -2.08609 2.01451 0
      vertex -1.94048 2.15512 0
    endloop
  endfacet
  facet normal 0 0 -1
    outer loop
      vertex -2.34615 -1.70458 0
      vertex -2.025 -0.749999 0
      vertex -2.22153 -1.86408 0
    endloop
  endfacet
  facet normal 0 0 -1
    outer loop
      vertex -2.45934 -1.53677 0
      vertex -2.025 -0.749999 0
      vertex -2.34615 -1.70458 0
    endloop
  endfacet
  facet normal 0 0 -1
    outer loop
      vertex -2.025 0.75 0
      vertex -2.22153 1.86408 0
      vertex -2.08609 2.01451 0
    endloop
  endfacet
  facet normal 0 0 -1
    outer loop
      vertex -2.56055 -1.36147 0
      vertex -2.025 -0.749999 0
      vertex -2.45934 -1.53677 0
    endloop
  endfacet
  facet normal 0 0 -1
    outer loop
      vertex -2.025 0.75 0
      vertex -2.34615 1.70458 0
      vertex -2.22153 1.86408 0
    endloop
  endfacet
  facet normal 0 0 -1
    outer loop
      vertex -2.64928 -1.17954 0
      vertex -2.025 -0.749999 0
      vertex -2.56055 -1.36147 0
    endloop
  endfacet
  facet normal 0 0 -1
    outer loop
      vertex -2.025 0.75 0
      vertex -2.45934 1.53677 0
      vertex -2.34615 1.70458 0
    endloop
  endfacet
  facet normal 0 0 -1
    outer loop
      vertex -2.72511 -0.991858 0
      vertex -2.025 -0.749999 0
      vertex -2.64928 -1.17954 0
    endloop
  endfacet
  facet normal 0 0 -1
    outer loop
      vertex -2.025 0.75 0
      vertex -2.56055 1.36147 0
      vertex -2.45934 1.53677 0
    endloop
  endfacet
  facet normal 0 0 -1
    outer loop
      vertex -2.78766 -0.799348 0
      vertex -2.025 -0.749999 0
      vertex -2.72511 -0.991858 0
    endloop
  endfacet
  facet normal 0 0 -1
    outer loop
      vertex -2.025 0.75 0
      vertex -2.64928 1.17954 0
      vertex -2.56055 1.36147 0
    endloop
  endfacet
  facet normal 0 0 -1
    outer loop
      vertex -2.83663 -0.602943 0
      vertex -2.025 -0.749999 0
      vertex -2.78766 -0.799348 0
    endloop
  endfacet
  facet normal 0 0 -1
    outer loop
      vertex -2.025 0.75 0
      vertex -2.72511 0.991858 0
      vertex -2.64928 1.17954 0
    endloop
  endfacet
  facet normal 0 0 -1
    outer loop
      vertex -2.87178 -0.403602 0
      vertex -2.025 -0.749999 0
      vertex -2.83663 -0.602943 0
    endloop
  endfacet
  facet normal 0 0 -1
    outer loop
      vertex -2.025 0.75 0
      vertex -2.78766 0.799348 0
      vertex -2.72511 0.991858 0
    endloop
  endfacet
  facet normal 0 0 -1
    outer loop
      vertex -2.89293 -0.202293 0
      vertex -2.025 -0.749999 0
      vertex -2.87178 -0.403602 0
    endloop
  endfacet
  facet normal -0 0 -1
    outer loop
      vertex -2.025 0.75 0
      vertex -2.83663 0.602943 0
      vertex -2.78766 0.799348 0
    endloop
  endfacet
  facet normal 0 0 -1
    outer loop
      vertex -2.9 0 0
      vertex -2.025 -0.749999 0
      vertex -2.89293 -0.202293 0
    endloop
  endfacet
  facet normal 0 0 -1
    outer loop
      vertex -2.025 0.75 0
      vertex -2.87178 0.403602 0
      vertex -2.83663 0.602943 0
    endloop
  endfacet
  facet normal 0 0 -1
    outer loop
      vertex -2.025 -0.749999 0
      vertex -2.9 0 0
      vertex -2.025 0.75 0
    endloop
  endfacet
  facet normal 0 0 -1
    outer loop
      vertex -2.025 0.75 0
      vertex -2.89293 0.202293 0
      vertex -2.87178 0.403602 0
    endloop
  endfacet
  facet normal 0 0 -1
    outer loop
      vertex -2.025 0.75 0
      vertex -2.9 0 0
      vertex -2.89293 0.202293 0
    endloop
  endfacet
  facet normal 0 0 -1
    outer loop
      vertex 0.701573 -2.81386 0
      vertex 0.75 -2.025 0
      vertex 0.896149 -2.75806 0
    endloop
  endfacet
  facet normal 0 0 -1
    outer loop
      vertex 0.503579 -2.85594 0
      vertex 0.75 -2.025 0
      vertex 0.701573 -2.81386 0
    endloop
  endfacet
  facet normal 0 0 -1
    outer loop
      vertex 0.303132 -2.88411 0
      vertex 0.75 -2.025 0
      vertex 0.503579 -2.85594 0
    endloop
  endfacet
  facet normal 0 0 -1
    outer loop
      vertex 0.101208 -2.89823 0
      vertex 0.75 -2.025 0
      vertex 0.303132 -2.88411 0
    endloop
  endfacet
  facet normal 0 0 -1
    outer loop
      vertex -0.101208 -2.89823 0
      vertex 0.75 -2.025 0
      vertex 0.101208 -2.89823 0
    endloop
  endfacet
  facet normal 0 0 -1
    outer loop
      vertex -0.75 -2.025 0
      vertex -0.101208 -2.89823 0
      vertex -0.303132 -2.88411 0
    endloop
  endfacet
  facet normal 0 0 -1
    outer loop
      vertex -0.75 -2.025 0
      vertex -0.303132 -2.88411 0
      vertex -0.503579 -2.85594 0
    endloop
  endfacet
  facet normal 0 0 -1
    outer loop
      vertex -0.75 -2.025 0
      vertex -0.503579 -2.85594 0
      vertex -0.701573 -2.81386 0
    endloop
  endfacet
  facet normal 0 0 -1
    outer loop
      vertex -0.101208 -2.89823 0
      vertex -0.75 -2.025 0
      vertex 0.75 -2.025 0
    endloop
  endfacet
  facet normal 0 0 -1
    outer loop
      vertex -0.896149 -2.75806 0
      vertex -0.75 -2.025 0
      vertex -0.701573 -2.81386 0
    endloop
  endfacet
  facet normal 0 0 -1
    outer loop
      vertex -1.08636 -2.68883 0
      vertex -0.75 -2.025 0
      vertex -0.896149 -2.75806 0
    endloop
  endfacet
  facet normal 0 0 -1
    outer loop
      vertex -1.27128 -2.6065 0
      vertex -0.75 -2.025 0
      vertex -1.08636 -2.68883 0
    endloop
  endfacet
  facet normal 0 0 -1
    outer loop
      vertex -1.45 -2.51147 0
      vertex -0.75 -2.025 0
      vertex -1.27128 -2.6065 0
    endloop
  endfacet
  facet normal 0 0 -1
    outer loop
      vertex -1.62166 -2.40421 0
      vertex -0.75 -2.025 0
      vertex -1.45 -2.51147 0
    endloop
  endfacet
  facet normal 0 0 -1
    outer loop
      vertex -1.78542 -2.28523 0
      vertex -0.75 -2.025 0
      vertex -1.62166 -2.40421 0
    endloop
  endfacet
  facet normal 0 0 -1
    outer loop
      vertex -1.94048 -2.15512 0
      vertex -0.75 -2.025 0
      vertex -1.78542 -2.28523 0
    endloop
  endfacet
  facet normal 0 0 -1
    outer loop
      vertex -2.08609 -2.01451 0
      vertex -0.75 -2.025 0
      vertex -1.94048 -2.15512 0
    endloop
  endfacet
  facet normal 0 -0 -1
    outer loop
      vertex -2.025 -0.749999 0
      vertex -0.75 -2.025 0
      vertex -2.08609 -2.01451 0
    endloop
  endfacet
  facet normal 0 0 -1
    outer loop
      vertex -2.22153 -1.86408 0
      vertex -2.025 -0.749999 0
      vertex -2.08609 -2.01451 0
    endloop
  endfacet
  facet normal 0 0 -1
    outer loop
      vertex -0.75 -2.025 0
      vertex -2.025 -0.749999 0
      vertex -0.75 -0.749999 0
    endloop
  endfacet
  facet normal 0 0 -1
    outer loop
      vertex 2.025 -0.75 0
      vertex 2.9 0 0
      vertex 2.89293 -0.202293 0
    endloop
  endfacet
  facet normal 0 0 -1
    outer loop
      vertex 2.025 -0.75 0
      vertex 2.89293 -0.202293 0
      vertex 2.87178 -0.403602 0
    endloop
  endfacet
  facet normal 0 0 -1
    outer loop
      vertex 2.025 0.749999 0
      vertex 2.9 0 0
      vertex 2.025 -0.75 0
    endloop
  endfacet
  facet normal 0 0 -1
    outer loop
      vertex 2.025 -0.75 0
      vertex 2.87178 -0.403602 0
      vertex 2.83663 -0.602943 0
    endloop
  endfacet
  facet normal 0 0 -1
    outer loop
      vertex 2.9 0 0
      vertex 2.025 0.749999 0
      vertex 2.89293 0.202293 0
    endloop
  endfacet
  facet normal 0 0 -1
    outer loop
      vertex 2.025 -0.75 0
      vertex 2.83663 -0.602943 0
      vertex 2.78766 -0.799348 0
    endloop
  endfacet
  facet normal 0 0 -1
    outer loop
      vertex 2.89293 0.202293 0
      vertex 2.025 0.749999 0
      vertex 2.87178 0.403602 0
    endloop
  endfacet
  facet normal 0 0 -1
    outer loop
      vertex 2.025 -0.75 0
      vertex 2.78766 -0.799348 0
      vertex 2.72511 -0.991858 0
    endloop
  endfacet
  facet normal 0 0 -1
    outer loop
      vertex 2.87178 0.403602 0
      vertex 2.025 0.749999 0
      vertex 2.83663 0.602943 0
    endloop
  endfacet
  facet normal 0 0 -1
    outer loop
      vertex 2.025 -0.75 0
      vertex 2.72511 -0.991858 0
      vertex 2.64928 -1.17954 0
    endloop
  endfacet
  facet normal 0 0 -1
    outer loop
      vertex 2.83663 0.602943 0
      vertex 2.025 0.749999 0
      vertex 2.78766 0.799348 0
    endloop
  endfacet
  facet normal 0 0 -1
    outer loop
      vertex 2.025 -0.75 0
      vertex 2.64928 -1.17954 0
      vertex 2.56055 -1.36147 0
    endloop
  endfacet
  facet normal -0 0 -1
    outer loop
      vertex 2.78766 0.799348 0
      vertex 2.025 0.749999 0
      vertex 2.72511 0.991858 0
    endloop
  endfacet
  facet normal 0 0 -1
    outer loop
      vertex 2.025 -0.75 0
      vertex 2.56055 -1.36147 0
      vertex 2.45934 -1.53677 0
    endloop
  endfacet
  facet normal -0 0 -1
    outer loop
      vertex 2.72511 0.991858 0
      vertex 2.025 0.749999 0
      vertex 2.64928 1.17954 0
    endloop
  endfacet
  facet normal 0 0 -1
    outer loop
      vertex 2.025 -0.75 0
      vertex 2.45934 -1.53677 0
      vertex 2.34615 -1.70458 0
    endloop
  endfacet
  facet normal -0 0 -1
    outer loop
      vertex 2.64928 1.17954 0
      vertex 2.025 0.749999 0
      vertex 2.56055 1.36147 0
    endloop
  endfacet
  facet normal 0 0 -1
    outer loop
      vertex 2.025 -0.75 0
      vertex 2.34615 -1.70458 0
      vertex 2.22153 -1.86408 0
    endloop
  endfacet
  facet normal -0 0 -1
    outer loop
      vertex 2.56055 1.36147 0
      vertex 2.025 0.749999 0
      vertex 2.45934 1.53677 0
    endloop
  endfacet
  facet normal 0 0 -1
    outer loop
      vertex 2.025 -0.75 0
      vertex 2.22153 -1.86408 0
      vertex 2.08609 -2.01451 0
    endloop
  endfacet
  facet normal -0 0 -1
    outer loop
      vertex 2.45934 1.53677 0
      vertex 2.025 0.749999 0
      vertex 2.34615 1.70458 0
    endloop
  endfacet
  facet normal -0 0 -1
    outer loop
      vertex 2.34615 1.70458 0
      vertex 2.025 0.749999 0
      vertex 2.22153 1.86408 0
    endloop
  endfacet
  facet normal 0 0 -1
    outer loop
      vertex 0.75 -2.025 0
      vertex 2.08609 -2.01451 0
      vertex 1.94048 -2.15512 0
    endloop
  endfacet
  facet normal 0 0 -1
    outer loop
      vertex 0.75 -2.025 0
      vertex 1.94048 -2.15512 0
      vertex 1.78542 -2.28523 0
    endloop
  endfacet
  facet normal 0 0 -1
    outer loop
      vertex 0.75 -2.025 0
      vertex 1.78542 -2.28523 0
      vertex 1.62166 -2.40421 0
    endloop
  endfacet
  facet normal 0 0 -1
    outer loop
      vertex 0.75 -2.025 0
      vertex 1.62166 -2.40421 0
      vertex 1.45 -2.51147 0
    endloop
  endfacet
  facet normal 0 0 -1
    outer loop
      vertex 0.75 -2.025 0
      vertex 1.45 -2.51147 0
      vertex 1.27128 -2.6065 0
    endloop
  endfacet
  facet normal 0 0 -1
    outer loop
      vertex 0.75 -2.025 0
      vertex 1.27128 -2.6065 0
      vertex 1.08636 -2.68883 0
    endloop
  endfacet
  facet normal 0 0 -1
    outer loop
      vertex 0.75 -2.025 0
      vertex 1.08636 -2.68883 0
      vertex 0.896149 -2.75806 0
    endloop
  endfacet
  facet normal -0 0 -1
    outer loop
      vertex 2.08609 -2.01451 0
      vertex 0.75 -2.025 0
      vertex 2.025 -0.75 0
    endloop
  endfacet
  facet normal -0 0 -1
    outer loop
      vertex 2.025 -0.75 0
      vertex 0.75 -2.025 0
      vertex 0.75 -0.75 0
    endloop
  endfacet
  facet normal -0 0 -1
    outer loop
      vertex 2.22153 1.86408 0
      vertex 2.025 0.749999 0
      vertex 2.08609 2.01451 0
    endloop
  endfacet
  facet normal 0 0 -1
    outer loop
      vertex 0.75 2.025 0
      vertex 2.08609 2.01451 0
      vertex 2.025 0.749999 0
    endloop
  endfacet
  facet normal 0 0 -1
    outer loop
      vertex 2.08609 2.01451 0
      vertex 0.75 2.025 0
      vertex 1.94048 2.15512 0
    endloop
  endfacet
  facet normal -0 0 -1
    outer loop
      vertex 1.94048 2.15512 0
      vertex 0.75 2.025 0
      vertex 1.78542 2.28523 0
    endloop
  endfacet
  facet normal -0 0 -1
    outer loop
      vertex 1.78542 2.28523 0
      vertex 0.75 2.025 0
      vertex 1.62166 2.40421 0
    endloop
  endfacet
  facet normal -0 0 -1
    outer loop
      vertex 1.62166 2.40421 0
      vertex 0.75 2.025 0
      vertex 1.45 2.51147 0
    endloop
  endfacet
  facet normal -0 0 -1
    outer loop
      vertex 1.45 2.51147 0
      vertex 0.75 2.025 0
      vertex 1.27128 2.6065 0
    endloop
  endfacet
  facet normal -0 0 -1
    outer loop
      vertex 1.27128 2.6065 0
      vertex 0.75 2.025 0
      vertex 1.08636 2.68883 0
    endloop
  endfacet
  facet normal 0 0 -1
    outer loop
      vertex 0.75 2.025 0
      vertex 2.025 0.749999 0
      vertex 0.75 0.749999 0
    endloop
  endfacet
  facet normal -0 0 -1
    outer loop
      vertex 1.08636 2.68883 0
      vertex 0.75 2.025 0
      vertex 0.896149 2.75806 0
    endloop
  endfacet
  facet normal 0 0 -1
    outer loop
      vertex 0.75 2.025 0
      vertex 0.701573 2.81386 0
      vertex 0.896149 2.75806 0
    endloop
  endfacet
  facet normal 0 0 -1
    outer loop
      vertex 0.75 2.025 0
      vertex 0.503579 2.85594 0
      vertex 0.701573 2.81386 0
    endloop
  endfacet
  facet normal 0 0 -1
    outer loop
      vertex 0.75 2.025 0
      vertex 0.303132 2.88411 0
      vertex 0.503579 2.85594 0
    endloop
  endfacet
  facet normal 0 0 -1
    outer loop
      vertex 0.75 2.025 0
      vertex 0.101208 2.89823 0
      vertex 0.303132 2.88411 0
    endloop
  endfacet
  facet normal 0 0 -1
    outer loop
      vertex 0.75 2.025 0
      vertex -0.101208 2.89823 0
      vertex 0.101208 2.89823 0
    endloop
  endfacet
  facet normal 0 0 -1
    outer loop
      vertex -0.75 2.025 0
      vertex -0.101208 2.89823 0
      vertex 0.75 2.025 0
    endloop
  endfacet
  facet normal 0 0 -1
    outer loop
      vertex -0.101208 2.89823 0
      vertex -0.75 2.025 0
      vertex -0.303132 2.88411 0
    endloop
  endfacet
  facet normal 0 0 -1
    outer loop
      vertex -0.303132 2.88411 0
      vertex -0.75 2.025 0
      vertex -0.503579 2.85594 0
    endloop
  endfacet
  facet normal 0 0 -1
    outer loop
      vertex -0.503579 2.85594 0
      vertex -0.75 2.025 0
      vertex -0.701573 2.81386 0
    endloop
  endfacet
  facet normal 0 0 -1
    outer loop
      vertex -0.701573 2.81386 0
      vertex -0.75 2.025 0
      vertex -0.896149 2.75806 0
    endloop
  endfacet
  facet normal 0.406735 -0.913546 0
    outer loop
      vertex 1.08636 -2.68883 0
      vertex 1.27128 -2.6065 4
      vertex 1.08636 -2.68883 4
    endloop
  endfacet
  facet normal 0.406735 -0.913546 0
    outer loop
      vertex 1.27128 -2.6065 4
      vertex 1.08636 -2.68883 0
      vertex 1.27128 -2.6065 0
    endloop
  endfacet
  facet normal 0.342021 -0.939692 0
    outer loop
      vertex 0.896149 -2.75806 0
      vertex 1.08636 -2.68883 4
      vertex 0.896149 -2.75806 4
    endloop
  endfacet
  facet normal 0.342021 -0.939692 0
    outer loop
      vertex 1.08636 -2.68883 4
      vertex 0.896149 -2.75806 0
      vertex 1.08636 -2.68883 0
    endloop
  endfacet
  facet normal 0.951056 -0.309019 0
    outer loop
      vertex 2.72511 -0.991858 4
      vertex 2.78766 -0.799348 0
      vertex 2.78766 -0.799348 4
    endloop
  endfacet
  facet normal 0.951056 -0.309019 0
    outer loop
      vertex 2.78766 -0.799348 0
      vertex 2.72511 -0.991858 4
      vertex 2.72511 -0.991858 0
    endloop
  endfacet
  facet normal 0.866024 -0.500002 0
    outer loop
      vertex 2.45934 -1.53677 4
      vertex 2.56055 -1.36147 0
      vertex 2.56055 -1.36147 4
    endloop
  endfacet
  facet normal 0.866024 -0.500002 0
    outer loop
      vertex 2.56055 -1.36147 0
      vertex 2.45934 -1.53677 4
      vertex 2.45934 -1.53677 0
    endloop
  endfacet
  facet normal 0.898795 -0.43837 0
    outer loop
      vertex 2.56055 -1.36147 4
      vertex 2.64928 -1.17954 0
      vertex 2.64928 -1.17954 4
    endloop
  endfacet
  facet normal 0.898795 -0.43837 0
    outer loop
      vertex 2.64928 -1.17954 0
      vertex 2.56055 -1.36147 4
      vertex 2.56055 -1.36147 0
    endloop
  endfacet
  facet normal -0.406735 -0.913546 0
    outer loop
      vertex -1.27128 -2.6065 0
      vertex -1.08636 -2.68883 4
      vertex -1.27128 -2.6065 4
    endloop
  endfacet
  facet normal -0.406735 -0.913546 -0
    outer loop
      vertex -1.08636 -2.68883 4
      vertex -1.27128 -2.6065 0
      vertex -1.08636 -2.68883 0
    endloop
  endfacet
  facet normal -0.866024 -0.500002 0
    outer loop
      vertex -2.45934 -1.53677 0
      vertex -2.56055 -1.36147 4
      vertex -2.56055 -1.36147 0
    endloop
  endfacet
  facet normal -0.866024 -0.500002 0
    outer loop
      vertex -2.56055 -1.36147 4
      vertex -2.45934 -1.53677 0
      vertex -2.45934 -1.53677 4
    endloop
  endfacet
  facet normal -0.743148 -0.669127 0
    outer loop
      vertex -2.08609 -2.01451 0
      vertex -2.22153 -1.86408 4
      vertex -2.22153 -1.86408 0
    endloop
  endfacet
  facet normal -0.743148 -0.669127 0
    outer loop
      vertex -2.22153 -1.86408 4
      vertex -2.08609 -2.01451 0
      vertex -2.08609 -2.01451 4
    endloop
  endfacet
  facet normal -0.927184 -0.374605 0
    outer loop
      vertex -2.64928 -1.17954 0
      vertex -2.72511 -0.991858 4
      vertex -2.72511 -0.991858 0
    endloop
  endfacet
  facet normal -0.927184 -0.374605 0
    outer loop
      vertex -2.72511 -0.991858 4
      vertex -2.64928 -1.17954 0
      vertex -2.64928 -1.17954 4
    endloop
  endfacet
  facet normal -0.984808 -0.173645 0
    outer loop
      vertex -2.83663 -0.602943 0
      vertex -2.87178 -0.403602 4
      vertex -2.87178 -0.403602 0
    endloop
  endfacet
  facet normal -0.984808 -0.173645 0
    outer loop
      vertex -2.87178 -0.403602 4
      vertex -2.83663 -0.602943 0
      vertex -2.83663 -0.602943 4
    endloop
  endfacet
  facet normal 0.275638 -0.961261 0
    outer loop
      vertex 0.701573 -2.81386 0
      vertex 0.896149 -2.75806 4
      vertex 0.701573 -2.81386 4
    endloop
  endfacet
  facet normal 0.275638 -0.961261 0
    outer loop
      vertex 0.896149 -2.75806 4
      vertex 0.701573 -2.81386 0
      vertex 0.896149 -2.75806 0
    endloop
  endfacet
  facet normal 0.139176 -0.990268 0
    outer loop
      vertex 0.303132 -2.88411 0
      vertex 0.503579 -2.85594 4
      vertex 0.303132 -2.88411 4
    endloop
  endfacet
  facet normal 0.139176 -0.990268 0
    outer loop
      vertex 0.503579 -2.85594 4
      vertex 0.303132 -2.88411 0
      vertex 0.503579 -2.85594 0
    endloop
  endfacet
  facet normal 0.970296 -0.241923 0
    outer loop
      vertex 2.78766 -0.799348 4
      vertex 2.83663 -0.602943 0
      vertex 2.83663 -0.602943 4
    endloop
  endfacet
  facet normal 0.970296 -0.241923 0
    outer loop
      vertex 2.83663 -0.602943 0
      vertex 2.78766 -0.799348 4
      vertex 2.78766 -0.799348 0
    endloop
  endfacet
  facet normal 0.788011 -0.615662 0
    outer loop
      vertex 2.22153 -1.86408 4
      vertex 2.34615 -1.70458 0
      vertex 2.34615 -1.70458 4
    endloop
  endfacet
  facet normal 0.788011 -0.615662 0
    outer loop
      vertex 2.34615 -1.70458 0
      vertex 2.22153 -1.86408 4
      vertex 2.22153 -1.86408 0
    endloop
  endfacet
  facet normal 0.642786 -0.766046 0
    outer loop
      vertex 1.78542 -2.28523 0
      vertex 1.94048 -2.15512 4
      vertex 1.78542 -2.28523 4
    endloop
  endfacet
  facet normal 0.642786 -0.766046 0
    outer loop
      vertex 1.94048 -2.15512 4
      vertex 1.78542 -2.28523 0
      vertex 1.94048 -2.15512 0
    endloop
  endfacet
  facet normal 0.529922 -0.848046 0
    outer loop
      vertex 1.45 -2.51147 0
      vertex 1.62166 -2.40421 4
      vertex 1.45 -2.51147 4
    endloop
  endfacet
  facet normal 0.529922 -0.848046 0
    outer loop
      vertex 1.62166 -2.40421 4
      vertex 1.45 -2.51147 0
      vertex 1.62166 -2.40421 0
    endloop
  endfacet
  facet normal 0.46947 -0.882949 0
    outer loop
      vertex 1.27128 -2.6065 0
      vertex 1.45 -2.51147 4
      vertex 1.27128 -2.6065 4
    endloop
  endfacet
  facet normal 0.46947 -0.882949 0
    outer loop
      vertex 1.45 -2.51147 4
      vertex 1.27128 -2.6065 0
      vertex 1.45 -2.51147 0
    endloop
  endfacet
  facet normal -0.0697527 -0.997564 0
    outer loop
      vertex -0.303132 -2.88411 0
      vertex -0.101208 -2.89823 4
      vertex -0.303132 -2.88411 4
    endloop
  endfacet
  facet normal -0.0697527 -0.997564 -0
    outer loop
      vertex -0.101208 -2.89823 4
      vertex -0.303132 -2.88411 0
      vertex -0.101208 -2.89823 0
    endloop
  endfacet
  facet normal -0.342021 -0.939692 0
    outer loop
      vertex -1.08636 -2.68883 0
      vertex -0.896149 -2.75806 4
      vertex -1.08636 -2.68883 4
    endloop
  endfacet
  facet normal -0.342021 -0.939692 -0
    outer loop
      vertex -0.896149 -2.75806 4
      vertex -1.08636 -2.68883 0
      vertex -0.896149 -2.75806 0
    endloop
  endfacet
  facet normal -0.139176 -0.990268 0
    outer loop
      vertex -0.503579 -2.85594 0
      vertex -0.303132 -2.88411 4
      vertex -0.503579 -2.85594 4
    endloop
  endfacet
  facet normal -0.139176 -0.990268 -0
    outer loop
      vertex -0.303132 -2.88411 4
      vertex -0.503579 -2.85594 0
      vertex -0.303132 -2.88411 0
    endloop
  endfacet
  facet normal -0.994522 -0.104528 0
    outer loop
      vertex -2.87178 -0.403602 0
      vertex -2.89293 -0.202293 4
      vertex -2.89293 -0.202293 0
    endloop
  endfacet
  facet normal -0.994522 -0.104528 0
    outer loop
      vertex -2.89293 -0.202293 4
      vertex -2.87178 -0.403602 0
      vertex -2.87178 -0.403602 4
    endloop
  endfacet
  facet normal -0.999391 -0.0349024 0
    outer loop
      vertex -2.89293 -0.202293 0
      vertex -2.9 0 4
      vertex -2.9 0 0
    endloop
  endfacet
  facet normal -0.999391 -0.0349024 0
    outer loop
      vertex -2.9 0 4
      vertex -2.89293 -0.202293 0
      vertex -2.89293 -0.202293 4
    endloop
  endfacet
  facet normal 0.587786 -0.809017 0
    outer loop
      vertex 1.62166 -2.40421 0
      vertex 1.78542 -2.28523 4
      vertex 1.62166 -2.40421 4
    endloop
  endfacet
  facet normal 0.587786 -0.809017 0
    outer loop
      vertex 1.78542 -2.28523 4
      vertex 1.62166 -2.40421 0
      vertex 1.78542 -2.28523 0
    endloop
  endfacet
  facet normal -0.529922 -0.848046 0
    outer loop
      vertex -1.62166 -2.40421 0
      vertex -1.45 -2.51147 4
      vertex -1.62166 -2.40421 4
    endloop
  endfacet
  facet normal -0.529922 -0.848046 -0
    outer loop
      vertex -1.45 -2.51147 4
      vertex -1.62166 -2.40421 0
      vertex -1.45 -2.51147 0
    endloop
  endfacet
  facet normal -0.587786 -0.809017 0
    outer loop
      vertex -1.78542 -2.28523 0
      vertex -1.62166 -2.40421 4
      vertex -1.78542 -2.28523 4
    endloop
  endfacet
  facet normal -0.587786 -0.809017 -0
    outer loop
      vertex -1.62166 -2.40421 4
      vertex -1.78542 -2.28523 0
      vertex -1.62166 -2.40421 0
    endloop
  endfacet
  facet normal -0.642786 -0.766046 0
    outer loop
      vertex -1.94048 -2.15512 0
      vertex -1.78542 -2.28523 4
      vertex -1.94048 -2.15512 4
    endloop
  endfacet
  facet normal -0.642786 -0.766046 -0
    outer loop
      vertex -1.78542 -2.28523 4
      vertex -1.94048 -2.15512 0
      vertex -1.78542 -2.28523 0
    endloop
  endfacet
  facet normal -0.275638 -0.961261 0
    outer loop
      vertex -0.896149 -2.75806 0
      vertex -0.701573 -2.81386 4
      vertex -0.896149 -2.75806 4
    endloop
  endfacet
  facet normal -0.275638 -0.961261 -0
    outer loop
      vertex -0.701573 -2.81386 4
      vertex -0.896149 -2.75806 0
      vertex -0.701573 -2.81386 0
    endloop
  endfacet
  facet normal -0.46947 -0.882949 0
    outer loop
      vertex -1.45 -2.51147 0
      vertex -1.27128 -2.6065 4
      vertex -1.45 -2.51147 4
    endloop
  endfacet
  facet normal -0.46947 -0.882949 -0
    outer loop
      vertex -1.27128 -2.6065 4
      vertex -1.45 -2.51147 0
      vertex -1.27128 -2.6065 0
    endloop
  endfacet
  facet normal -1 0 0
    outer loop
      vertex -0.7 -2.5 4
      vertex -0.7 -0.7 8.25
      vertex -0.7 -0.7 4
    endloop
  endfacet
  facet normal -1 -0 0
    outer loop
      vertex -0.7 -0.7 8.25
      vertex -0.7 -2.5 4
      vertex -0.7 -2.5 8.25
    endloop
  endfacet
  facet normal -1 0 0
    outer loop
      vertex -0.7 0.7 4
      vertex -0.7 2.5 8.25
      vertex -0.7 2.5 4
    endloop
  endfacet
  facet normal -1 -0 0
    outer loop
      vertex -0.7 2.5 8.25
      vertex -0.7 0.7 4
      vertex -0.7 0.7 8.25
    endloop
  endfacet
  facet normal -0 0 1
    outer loop
      vertex -2.5 0.7 8.25
      vertex -0.7 -0.7 8.25
      vertex -0.7 0.7 8.25
    endloop
  endfacet
  facet normal 0 0 1
    outer loop
      vertex -0.7 -0.7 8.25
      vertex -2.5 0.7 8.25
      vertex -2.5 -0.7 8.25
    endloop
  endfacet
  facet normal 0 0 1
    outer loop
      vertex -0.7 0.7 8.25
      vertex 0.7 0.7 8.25
      vertex 0.7 2.5 8.25
    endloop
  endfacet
  facet normal 0 0 1
    outer loop
      vertex 0.7 0.7 8.25
      vertex -0.7 0.7 8.25
      vertex 0.7 -0.7 8.25
    endloop
  endfacet
  facet normal 0 0 1
    outer loop
      vertex -0.7 0.7 8.25
      vertex 0.7 2.5 8.25
      vertex -0.7 2.5 8.25
    endloop
  endfacet
  facet normal 0 0 1
    outer loop
      vertex -0.7 -0.7 8.25
      vertex 0.7 -0.7 8.25
      vertex -0.7 0.7 8.25
    endloop
  endfacet
  facet normal 0 0 1
    outer loop
      vertex 0.7 -0.7 8.25
      vertex -0.7 -0.7 8.25
      vertex 0.7 -2.5 8.25
    endloop
  endfacet
  facet normal 0 0 1
    outer loop
      vertex 0.7 -2.5 8.25
      vertex -0.7 -0.7 8.25
      vertex -0.7 -2.5 8.25
    endloop
  endfacet
  facet normal -0 0 1
    outer loop
      vertex 0.7 0.7 8.25
      vertex 2.5 -0.7 8.25
      vertex 2.5 0.7 8.25
    endloop
  endfacet
  facet normal 0 0 1
    outer loop
      vertex 2.5 -0.7 8.25
      vertex 0.7 0.7 8.25
      vertex 0.7 -0.7 8.25
    endloop
  endfacet
  facet normal 1 -0 0
    outer loop
      vertex 0.7 -2.5 8.25
      vertex 0.7 -0.7 4
      vertex 0.7 -0.7 8.25
    endloop
  endfacet
  facet normal 1 0 0
    outer loop
      vertex 0.7 -0.7 4
      vertex 0.7 -2.5 8.25
      vertex 0.7 -2.5 4
    endloop
  endfacet
  facet normal 1 -0 0
    outer loop
      vertex 0.7 0.7 8.25
      vertex 0.7 2.5 4
      vertex 0.7 2.5 8.25
    endloop
  endfacet
  facet normal 1 0 0
    outer loop
      vertex 0.7 2.5 4
      vertex 0.7 0.7 8.25
      vertex 0.7 0.7 4
    endloop
  endfacet
  facet normal 0 1 -0
    outer loop
      vertex 0.7 2.5 4
      vertex -0.7 2.5 8.25
      vertex 0.7 2.5 8.25
    endloop
  endfacet
  facet normal 0 1 0
    outer loop
      vertex -0.7 2.5 8.25
      vertex 0.7 2.5 4
      vertex -0.7 2.5 4
    endloop
  endfacet
  facet normal 0 -1 0
    outer loop
      vertex -0.7 -2.5 4
      vertex 0.7 -2.5 8.25
      vertex -0.7 -2.5 8.25
    endloop
  endfacet
  facet normal 0 -1 -0
    outer loop
      vertex 0.7 -2.5 8.25
      vertex -0.7 -2.5 4
      vertex 0.7 -2.5 4
    endloop
  endfacet
  facet normal 0 1 -0
    outer loop
      vertex 2.5 0.7 4
      vertex 0.7 0.7 8.25
      vertex 2.5 0.7 8.25
    endloop
  endfacet
  facet normal 0 1 0
    outer loop
      vertex 0.7 0.7 8.25
      vertex 2.5 0.7 4
      vertex 0.7 0.7 4
    endloop
  endfacet
  facet normal 0 1 -0
    outer loop
      vertex -0.7 0.7 4
      vertex -2.5 0.7 8.25
      vertex -0.7 0.7 8.25
    endloop
  endfacet
  facet normal 0 1 0
    outer loop
      vertex -2.5 0.7 8.25
      vertex -0.7 0.7 4
      vertex -2.5 0.7 4
    endloop
  endfacet
  facet normal 0 -1 0
    outer loop
      vertex 0.7 -0.7 4
      vertex 2.5 -0.7 8.25
      vertex 0.7 -0.7 8.25
    endloop
  endfacet
  facet normal 0 -1 -0
    outer loop
      vertex 2.5 -0.7 8.25
      vertex 0.7 -0.7 4
      vertex 2.5 -0.7 4
    endloop
  endfacet
  facet normal 0 -1 0
    outer loop
      vertex -2.5 -0.7 4
      vertex -0.7 -0.7 8.25
      vertex -2.5 -0.7 8.25
    endloop
  endfacet
  facet normal 0 -1 -0
    outer loop
      vertex -0.7 -0.7 8.25
      vertex -2.5 -0.7 4
      vertex -0.7 -0.7 4
    endloop
  endfacet
  facet normal 1 -0 0
    outer loop
      vertex 2.5 -0.7 8.25
      vertex 2.5 0.7 4
      vertex 2.5 0.7 8.25
    endloop
  endfacet
  facet normal 1 0 0
    outer loop
      vertex 2.5 0.7 4
      vertex 2.5 -0.7 8.25
      vertex 2.5 -0.7 4
    endloop
  endfacet
  facet normal -1 0 0
    outer loop
      vertex -2.5 -0.7 4
      vertex -2.5 0.7 8.25
      vertex -2.5 0.7 4
    endloop
  endfacet
  facet normal -1 -0 0
    outer loop
      vertex -2.5 0.7 8.25
      vertex -2.5 -0.7 4
      vertex -2.5 -0.7 8.25
    endloop
  endfacet
endsolid OpenSCAD_Model
